<svg xmlns="http://www.w3.org/2000/svg" xmlns:xlink="http://www.w3.org/1999/xlink" width="299.54144287109375" height="370.3777494430542" viewBox="0 0 299.54144287109375 370.3777494430542" fill="none">
<path d="M44.1 330.2C30.8 317.5 20.4 302.7 12.8 286C5.5 269.9 1.3 253 0.299999 235.3C0.199999 234.2 0.199999 233 0.0999992 231.9C0 230.7 0 229.5 0 228.4C0 200.3 0 172.1 0 144C0 132.3 1.4 120.7 4.2 109.3C9.7 87.1 19.8 67.5 34.4 50.3C45.1 37.8 57.7 27.4 72.1 19.1C90.3 8.7 109.8 2.6 130.7 0.7C136.3 0.2 142.8 5.96046e-08 150.3 5.96046e-08C155.4 5.96046e-08 159.7 0.1 163.3 0.3C165.7 0.4 168.1 0.6 170.5 0.8C200.2 4 226.3 15.2 248.9 34.3C263.9 47 275.8 62.4 284.7 80.4C294.1 99.5 299 119.6 299.4 140.9C299.5 146.3 299.6 151.6 299.5 157C299.5 179.3 299.5 201.6 299.5 223.9C299.5 226.9 299.5 229.3 299.4 231.1C297.9 266.4 285.6 297 262.2 323.1C260.6 324.9 258.9 326.7 257.2 328.3C243.5 341.9 227.8 352.3 210 359.6C196.9 365 183.3 368.3 169 369.6C166.9 369.8 164.5 369.9 161.8 370.1C150.8 370.6 140.7 370.4 131.5 369.7C121.4 368.9 111.1 366.9 100.5 363.5C79 356.9 60.3 345.7 44.1 330.2ZM256.1 46.5C247.5 37.6 237.9 29.9 227.1 23.5C205.9 10.9 182.9 4.3 158.1 3.8C153.3 3.7 148.5 3.7 143.7 3.7C120.3 3.8 98.3 9.4 77.8 20.4C61.3 29.2 47.3 40.8 35.7 54.9C16.5 78.3 6 105.2 3.9 135.6C3.8 137.6 3.7 140 3.7 142.8C3.6 162.9 3.6 177 3.6 185.1C3.7 196.6 3.7 206 3.6 213.1C3.6 215.6 3.6 218 3.6 220.3C3.6 222.8 3.6 225.2 3.7 227.7C3.7 230.6 3.8 233 3.9 234.9C5.8 263.2 15.2 288.5 32.2 311C33.7 312.9 35.2 314.8 36.7 316.6C49 331.2 63.6 342.8 80.6 351.5C99.2 361 119.1 366 140.2 366.5C147.3 366.7 153.5 366.7 158.8 366.6C184.4 365.9 208.1 358.8 229.7 345.3C231.7 344 233.7 342.7 235.7 341.3C252.8 329.3 266.4 314.4 276.8 296.6C288.3 276.7 294.6 255.2 295.6 232C295.7 230.2 295.7 227.8 295.7 224.8C295.7 198.7 295.7 172.6 295.7 146.5C295.7 143.3 295.7 140.9 295.6 139.3C294.8 117.3 289.1 96.7 278.7 77.3C272.7 66.2 265.2 56 256.1 46.5Z" fill-rule="evenodd"  fill="#6F2F7C" >
</path>
<path d="M254.5 323C237.5 340.5 217.3 352.6 193.9 359.4C181.2 363.1 168.3 364.9 155.1 364.9C150.8 364.9 146.6 364.9 142.3 364.8C122.7 364.6 104 360.4 86.2 352.2C68.1 343.9 52.6 332.2 39.5 317.2C27.2 303.1 18.2 287.3 12.4 269.8C8.19999 257.3 5.89999 244.3 5.39999 230.9C5.29999 229.3 5.29999 226.9 5.29999 223.7C5.29999 197.2 5.29999 170.8 5.29999 144.3C5.29999 141.4 5.39999 139 5.49999 137.1C7.19999 106.5 17.7 79.5 36.8 56C49.5 40.4 65.1 28.1 83.5 19.1C85.7 18 87.9 17 90.1 16.1C102.1 11 114.4 7.80001 127 6.30001C136.2 5.2 144.9 5.3 154.1 5.3C187.9 5.3 217.7 15.8 243.5 36.9C254.3 45.7 263.7 56.2 271.6 68.3C272.9 70.3 274.2 72.4 275.4 74.5C287.8 96.2 294 119.7 294 145C294 171.9 294 198.8 294 225.6C294 233.8 293.3 242 291.8 250.4C291.4 252.8 290.9 255.1 290.4 257.5C284.5 282.6 272.6 304.5 254.5 323ZM77.9 298.2C94.2 312.6 113.1 320.9 134.9 323.3C137 323.5 139.4 323.7 142.1 323.8C148.3 324 154 324 159.3 323.7C176.3 322.8 192 318 206.6 309.2C208.6 308 210.7 306.7 212.6 305.2C230.1 292.8 242.6 276.6 250 256.5C254.2 245 256.3 232.8 256.2 219.9C256.2 217.5 256.2 216.3 256.2 216.3C256.2 194.9 256.2 173.6 256.2 152.2C256.2 148.8 256.2 146.4 256.1 145C255.5 128.3 251.1 112.9 243.2 98.7C232.8 80.2 218 66.3 198.9 56.8C196.7 55.7 194.5 54.7 192.3 53.8C180.5 49 167.9 46.6 154.7 46.4C148.7 46.3 143.5 46.4 138.9 46.6C136.4 46.7 134 46.9 131.7 47.3C114.8 49.7 99.6 55.8 85.9 65.7C70 77.2 58.3 92.1 50.8 110.4C46.5 120.8 44.1 131.9 43.5 143.7C43.4 145.3 43.4 147.7 43.4 150.9C43.4 174.5 43.4 198 43.4 221.6C43.4 228.6 44.1 235.4 45.4 241.8C49.5 261.7 58.6 278.8 72.7 293.2C74.3 294.9 76 296.6 77.9 298.2Z" fill-rule="evenodd"  fill="#6F2C7C" >
</path>
<path d="M118.7 34.6C118.5 34.5 118.4 34.6 118.3 34.7C117.6 35.8 116.9 36.5 116.1 36.8C115.9 36.9 115.6 36.8 115.5 36.6C115.1 36.1 114.9 35.5 114.9 34.9C114.9 34.4 115.1 33.9 115.5 33.3C116.1 32.4 116.8 31.4 117.5 30.5C117.7 30.2 117.7 29.8 117.4 29.6C116.6 28.9 116.2 28.1 116 27.1C115.8 25.7 115.6 24.3 115.4 23C115.2 21.7 115.1 20.5 115.2 19.2C115.2 19 115.2 18.7 115.2 18.4C115.2 17.6 115.4 17.4 116.1 17.9C116.5 18.2 116.8 18.6 117.1 19.1C117.6 20.1 118.3 20.3 119.2 19.6C119.5 19.4 119.6 19.1 119.6 18.8C119.5 17.6 119.3 16.5 119 15.5C118.8 14.8 118.7 14.4 118.6 14.3C118.4 14 118.1 13.8 117.7 13.7C117.4 13.7 117.1 13.7 116.8 13.9C116 14.3 115.2 14.7 114.5 15.3C113.9 15.7 113.7 15.6 113.7 15C113.7 14.7 113.8 14.4 114 14.2L117.6 10.7C117.8 10.5 118 10.5 118.3 10.5C120.2 10.8 121.3 11.8 121.4 13.6C121.4 13.6 121.4 14 121.4 14.9C121.4 16.7 121.9 18.2 123.1 19.4C123.8 20.1 124.2 20.6 124.3 20.9C124.5 21.5 124.5 22.2 124.2 22.9C124 23.5 123.9 24.2 124 24.9C124.1 25.8 124.4 26.8 125 28C125.1 28.3 125.5 28.5 125.8 28.4C127.6 27.8 129.3 27.7 131 28C131.8 28.2 132.2 28.6 132.2 29.4C132.2 33.1 131.6 36.7 130.4 40.1C129.8 41.7 129.2 42.9 128.4 43.8C127.4 44.9 126.2 45.6 124.8 46.1C124.7 46.1 124.6 46.1 124.5 46.1C123.1 45.6 121.9 45 120.9 44.1C120.7 43.9 120.4 43.9 120.1 44.1L118 45.9C117.9 46 117.8 46 117.7 46C117.5 46 117.5 45.8 117.7 45.6C118.6 44.2 119.3 42.9 119.7 41.9C119.9 41.4 120.2 41.1 120.6 41C120.7 41 120.8 40.9 120.9 40.8C121.3 40 121.8 39 122.3 37.8C122.8 36.6 123.1 35.5 123.1 34.3C123.1 33.9 123 33.7 122.8 33.5C122.5 33.3 122.3 33.3 122 33.5C121.9 33.6 121.7 33.8 121.6 34.1C121.1 35.6 120.5 37.1 119.9 38.6C119.9 38.7 119.8 38.8 119.9 38.9C120.1 40.1 119.6 40.8 118.5 41C118.4 41 118.3 41 118.2 40.9C117.4 40.4 117 39.8 117.1 39C117.1 38.6 117.4 38 117.8 37C118.1 36.3 118.4 35.7 118.8 35.1C118.8 34.7 118.8 34.6 118.7 34.6ZM119 23C118.9 24.3 119 25.5 119.2 26.7C119.3 27.3 119.5 27.4 119.9 26.8C120.5 25.9 120.7 24.8 120.5 23.7C120.4 22.9 120 22.6 119.3 22.8C119.1 22.8 119 22.9 119 23ZM120.5 28C120.3 28.3 120.2 28.6 120.1 28.9C120 29.2 120.1 29.5 120.5 29.5C120.7 29.5 120.9 29.5 121.1 29.4C121.9 29.1 122.1 28.6 121.7 27.9C121.6 27.6 121.4 27.4 121.2 27.4C121 27.4 120.7 27.5 120.5 28ZM125.7 36.5C125.4 37.4 124.9 38.3 124.3 39.1C123.6 40.1 122.9 41 122.1 42C122 42.1 122 42.4 122.2 42.5C122.9 43 123.7 43.1 124.5 42.7C125.3 42.3 126 41.8 126.4 41.3C128.1 39 129.2 36.3 129.7 33.2C129.8 32.2 129.8 31.3 129.4 30.5C129.2 30 128.8 29.7 128.2 29.7C126.9 29.6 125.7 29.8 124.6 30.2C124.4 30.3 124.4 30.5 124.5 30.6C125.4 31.6 125.9 32.6 126 33.9C126.2 34.5 126.1 35.5 125.7 36.5Z" fill-rule="evenodd"  fill="#FFFFFF" >
</path>
<path d="M183.9 17.1C184 17.4 184.3 17.6 184.6 17.4C185.2 17 185.9 16.7 186.5 16.5C187 16.3 187.4 16.1 187.7 15.7C188 15.4 188.2 15 188.3 14.4C188.4 13.8 188.5 13.2 188.6 12.7C188.7 12.1 189 11.7 189.5 11.6C189.9 11.5 190.3 11.6 190.7 11.9C191 12.1 191.2 12.4 191.3 12.8C191.3 13 191.3 13.4 191.1 13.8C190.7 14.8 191.1 15.2 192.4 15.2C192.9 15.2 193.1 15.5 192.9 16.3C192.7 17.1 192.9 17.3 193.6 17C194.4 16.6 195.2 16.3 196 15.9C196.1 15.9 196.2 15.8 196.3 15.9C197.3 16.3 197.9 17 198 18.2C198 18.5 197.9 18.8 197.6 19C196.8 19.6 196 20.3 195.5 21.2C195.2 21.7 194.8 22.2 194.3 22.6C193.4 23.4 192.4 24.6 191.4 26.1C190.8 27 191 27.5 192 27.7C193.5 28 195 28.3 196.6 28.6C197 28.7 197.3 28.9 197.6 29.3C198 29.9 198.3 30.5 198.4 31.2C198.5 31.6 198.4 32 198.1 32.3C197.8 32.7 197.4 32.9 197 33C194.3 33.2 192 32.5 190 31C189.7 30.8 189.7 30.6 190.1 30.5C191.2 30.2 192.4 29.9 193.6 29.8C193.8 29.8 194 29.7 194.1 29.7C194.3 29.6 194.3 29.4 194.1 29.2C194 29.1 193.9 29 193.7 29C192.8 28.7 192 28.5 191.2 28.5C190.8 28.5 190.4 28.6 190.1 28.9C189.1 29.7 188.4 30.6 188.2 31.5C188.2 31.6 188.1 31.7 188 31.8C187.3 32.4 186.6 32.9 185.8 33.3C185.3 33.6 185.1 33.8 184.9 34C184.6 34.4 184.7 34.7 185.1 35C185.3 35.1 185.6 35.2 186 35.3C187.4 35.5 188.9 35.5 190.4 35.5C190.5 35.5 190.6 35.5 190.7 35.6C191.5 36.1 192 36.8 192.2 37.6C192.4 38.5 192.2 39 191.6 39.1C191.3 39.1 190.9 39.1 190.4 38.9C189.5 38.6 188.5 38.4 187.4 38.4C187.4 38.4 187.2 38.4 186.9 38.4C186.5 38.4 186.2 38.5 186.1 38.9C185.9 39.3 185.8 39.8 185.8 40.2C185.5 42.6 184.7 44.8 183.3 46.7C182.7 47.5 182.1 48 181.4 48.2C180.6 48.4 179.8 48.4 179.1 48C178.8 47.9 178.2 47.5 177.1 46.9C175.6 46.1 174.5 44.9 173.6 43.3C173.5 43.1 173.5 43 173.8 43.1C174.4 43.3 174.9 43.6 175.4 44C176.7 44.9 178.1 45.4 179.6 45.4C180 45.4 180.3 45.2 180.5 44.9C181.5 43.2 182.3 41.4 183 39.5C183.2 38.8 183 38.5 182.3 38.5C180.5 38.5 178.7 38.8 176.8 39.3C175.9 39.6 175.2 39.7 174.7 39.5C173.9 39.3 173.3 38.8 173 38C172.7 37.4 172.8 36.9 173.2 36.6C173.4 36.4 173.8 36.3 174.4 36.3C175.5 36.2 176.4 36.2 177 36C178.1 35.8 179.1 35.7 180.2 35.8C180.9 35.8 181.6 35.8 182.3 35.6C182.5 35.5 182.6 35.3 182.5 35.1C181.8 33.9 180.9 33.6 179.6 34.2C178.4 34.7 177.4 34.4 176.8 33.2C176.7 32.9 176.8 32.6 177.1 32.6C178.5 32.2 179.9 31.9 181.4 31.5C181.4 31.5 181.9 31.4 182.8 31.1C183.8 30.8 184.8 30.8 185.8 30.9C185.9 30.9 186 30.9 186.1 30.8C186.6 30.5 186.7 30.1 186.7 29.6C186.7 29.3 186.4 29.1 186.1 29.1C183.4 29.2 180.8 29.5 178.5 30C177.3 30.3 176.1 30.3 174.9 30.2C174.6 30.2 174.3 30.3 174.1 30.6L172.4 33.4C172.2 33.8 171.9 33.8 171.5 33.6C170.5 33.1 170 32.5 170.2 31.6C170.3 31.2 170.6 30.6 171.2 29.8C172.3 28.4 173.2 27 174.1 25.5C174.2 25.4 174.3 25.3 174.4 25.4C174.8 25.5 175 25.7 175 26.1C175 26.7 175 27.3 174.9 27.8C174.8 28.4 175 28.7 175.7 28.7C177.1 28.7 177.8 28 177.7 26.7C177.5 23.9 177.4 21 177.4 18.2C177.4 17.4 177.5 16.6 177.8 15.9C177.9 15.5 178.1 15.5 178.4 15.8C178.8 16.4 179.2 17 179.6 17.6C180 18.3 180.2 18.9 180.3 19.6C180.4 20.3 180.3 21.1 180.2 22.1C180 23.8 179.8 25.5 179.3 27.3C179.2 27.7 179.4 28 179.8 28.2C180.3 28.4 180.6 28.1 180.6 27.5C181.1 22.9 181.7 18.1 182.2 13.2C182.3 12.5 182.6 12.3 183.2 12.5C185.3 13.2 185.7 14.7 184.4 16.8C183.9 16.6 183.8 16.9 183.9 17.1ZM191.2 18.3C191.5 18 191.4 17.8 191 17.8C190.1 17.8 189.2 18.1 188.4 18.5C188.3 18.6 188.2 18.6 188.2 18.8C188.1 19.2 188.2 19.5 188.7 19.5C189.7 19.5 190.5 19.2 191.2 18.3ZM183.3 19.8C182.5 21.6 182.1 24 181.9 26.9C181.9 27 182 27.1 182.1 27.1C182.8 27.2 183.4 27 184 26.7C184.5 26.4 184.6 26 184.2 25.6C183.4 24.8 183.1 23.9 183.3 23C183.3 22.9 183.4 22.8 183.5 22.9C183.8 23 184.1 23.1 184.4 23.1C184.8 23.2 185.1 23.3 185.4 23.2C186.4 23 186.5 22.6 185.7 22C185.3 21.7 185.1 21.5 185 21.4C184.6 20.8 184.7 20.3 185.2 19.7C185.5 19.4 185.6 19.1 185.4 18.8C185.3 18.7 185.2 18.7 185.1 18.7C184.1 18.8 183.5 19.2 183.3 19.8ZM190.5 19.9C190.1 20.3 190.1 20.6 190.5 20.9C191.3 21.6 191.9 21.6 192.4 20.8C192.6 20.5 192.8 20.1 193 19.8C193.1 19.5 192.9 19.2 192.6 19.2C191.7 19.3 191 19.5 190.5 19.9ZM188.7 24.3C188.9 24 189.2 23.6 189.5 23.2C189.6 23 189.7 22.9 189.7 22.8C189.7 22.6 189.6 22.4 189.4 22.4C189.3 22.4 189.2 22.4 189.1 22.5C188.3 22.9 187.9 23.6 187.9 24.6C187.9 24.7 187.9 24.8 187.8 24.9C187.5 25.3 187.5 25.7 187.9 26.2C188.6 27.2 189.1 27.2 189.4 26.2C189.5 25.8 189.6 25.6 189.6 25.5C189.6 25.2 189.4 25 189 24.9C188.6 24.7 188.5 24.5 188.7 24.3ZM185.7 26.6C185.6 26.8 185.7 27 185.9 27C186.6 27.3 187 27.1 187.1 26.3C187.1 26.2 187.1 26.1 187 26C186.5 25.6 186.1 25.8 185.7 26.6ZM185.2 30.6C185 30.4 184.3 30.7 183.5 31.3C182.7 31.9 182.2 32.5 182.3 32.8C182.5 33 183.2 32.7 184 32.1C184.8 31.5 185.3 30.8 185.2 30.6Z" fill-rule="evenodd"  fill="#FFFFFF" >
</path>
<path d="M103.2 28.8C104 28.7 104.7 28.8 105.5 29.2C106.1 29.5 106.7 30 107.2 30.6C107.9 31.4 108.3 32.2 108.6 33.2C109 34.4 108.8 35.5 108 36.5C107.9 36.7 107.8 36.8 107.8 36.9C107.7 37.5 107.8 37.7 108.2 37.3C108.3 37.2 108.4 37.1 108.5 36.9C109 35.9 109.3 35 109.6 34C110 32.5 110.2 31.7 110.2 31.7C110.7 30 111.1 28.3 111.4 26.7C111.5 26 111.7 26 111.8 26.7C112.7 30.5 112.6 34.1 111.4 37.7C110.9 39.2 110.6 40.2 110.6 40.7C110.4 41.7 110.4 42.8 110.4 43.8C110.4 44.7 110.4 45.4 110.4 45.9C110.3 46.6 109.9 47 109.3 47.1C107.8 47.4 106.9 47 106.6 45.8C106 43.7 105.5 41.5 105.2 39.3C105.1 38.7 105 38.3 104.8 38.1C104.5 37.7 104.1 37.5 103.6 37.5C103.1 37.4 102.7 37.3 102.2 37.2C101.1 36.8 100.7 36.1 100.8 35.2C100.9 34.5 101.2 33.9 101.8 33.4C102.7 32.7 103.8 32.3 105.2 32.4C105.3 32.4 105.4 32.3 105.4 32.2C105.1 31.1 104.5 30.5 103.6 30.5C103.2 30.5 102.7 30.6 102.2 30.9C101.7 31.1 101.3 31.3 100.8 31.5C100.1 31.8 99.6 31.6 99.4 31C99.4 30.9 99.4 30.8 99.5 30.7C100.7 29.2 101.4 28.1 101.8 27.5C102.8 25.6 103.9 23.8 105 22C105.2 21.6 105.1 21.5 104.7 21.5C104.5 21.5 104.1 21.6 103.7 21.7C102.7 22 101.9 21.9 101.1 21.5C100.4 21.1 99.9 20.5 99.6 19.7C99 18.3 99.2 16.8 100 15.4C100.3 14.9 100.5 14.9 100.8 15.4C101.4 16.7 102.3 17.7 103.4 18.6C103.5 18.7 103.6 18.7 103.7 18.7C104.3 18.6 104.9 18.4 105.5 18.2C106.7 17.7 107.8 17.8 108.8 18.4C109.7 18.9 109.8 19.6 109.1 20.4C108.9 20.7 108.7 20.8 108.7 20.8C106.7 23.1 104.8 25.6 103 28.1C102.6 28.7 102.7 28.9 103.2 28.8ZM102.1 35.9C101.9 36.2 102.1 36.5 102.4 36.6L103.4 36.9C104.2 37.1 104.5 37 104.5 36.4C104.5 35.8 104.3 35.3 104 34.8C103.8 34.6 103.5 34.5 103.3 34.6C102.7 35 102.4 35.4 102.1 35.9Z" fill-rule="evenodd"  fill="#FFFFFF" >
</path>
<path d="M191.2 18.3C190.6 19.1 189.7 19.5 188.7 19.4C188.2 19.4 188.1 19.1 188.2 18.7C188.2 18.6 188.3 18.5 188.4 18.4C189.2 18 190.1 17.8 191 17.7C191.3 17.9 191.4 18 191.2 18.3Z" fill-rule="evenodd"  fill="#663872" >
</path>
<path d="M183.3 19.8C183.5 19.2 184.1 18.9 185 18.8C185.1 18.8 185.2 18.8 185.3 18.9C185.5 19.1 185.5 19.4 185.1 19.8C184.5 20.4 184.5 20.9 184.9 21.5C185 21.6 185.2 21.8 185.6 22.1C186.4 22.7 186.3 23.1 185.3 23.3C185 23.4 184.7 23.3 184.3 23.2C184 23.1 183.7 23 183.4 23C183.3 23 183.2 23 183.2 23.1C183 24.1 183.3 24.9 184.1 25.7C184.5 26.1 184.5 26.5 183.9 26.8C183.3 27.1 182.7 27.3 182 27.2C181.9 27.2 181.8 27.1 181.8 27C182 23.9 182.5 21.6 183.3 19.8Z" fill-rule="evenodd"  fill="#663872" >
</path>
<path d="M190.5 19.9C190.9 19.5 191.7 19.3 192.6 19.2C192.9 19.2 193.1 19.5 193 19.8C192.8 20.2 192.6 20.5 192.4 20.8C191.9 21.5 191.3 21.5 190.5 20.9C190.2 20.6 190.1 20.3 190.5 19.9Z" fill-rule="evenodd"  fill="#6B2F79" >
</path>
<path d="M188.7 24.3C188.6 24.5 188.7 24.7 188.9 24.7C189.4 24.8 189.6 25 189.5 25.3C189.5 25.4 189.4 25.6 189.3 26C189 26.9 188.5 26.9 187.8 26C187.5 25.5 187.4 25.1 187.7 24.7C187.8 24.6 187.8 24.5 187.8 24.4C187.8 23.5 188.2 22.8 189 22.3C189.1 22.2 189.2 22.2 189.3 22.2C189.5 22.3 189.6 22.4 189.6 22.6C189.6 22.7 189.5 22.9 189.4 23C189.2 23.6 188.9 24 188.7 24.3Z" fill-rule="evenodd"  fill="#663872" >
</path>
<path d="M119 23C119 22.9 119.1 22.8 119.2 22.8C119.9 22.6 120.3 22.9 120.4 23.7C120.6 24.9 120.4 25.9 119.8 26.8C119.5 27.3 119.2 27.3 119.1 26.7C119 25.5 118.9 24.3 119 23Z" fill-rule="evenodd"  fill="#6B2F79" >
</path>
<path d="M185.7 26.6C186.1 25.8 186.5 25.6 186.9 26C187 26.1 187 26.2 187 26.3C187 27.1 186.6 27.4 185.8 27C185.7 27 185.6 26.8 185.7 26.6Z" fill-rule="evenodd"  fill="#663872" >
</path>
<path d="M120.5 28C120.7 27.6 121 27.4 121.3 27.5C121.5 27.6 121.6 27.7 121.8 28C122.1 28.7 121.9 29.2 121.2 29.5C121 29.6 120.8 29.6 120.6 29.6C120.3 29.5 120.1 29.3 120.2 29C120.2 28.6 120.3 28.3 120.5 28Z" fill-rule="evenodd"  fill="#6B2F79" >
</path>
<path d="M126.1 33.7C126 32.5 125.5 31.4 124.6 30.4C124.5 30.3 124.5 30.1 124.7 30C125.8 29.6 127 29.5 128.3 29.5C128.9 29.5 129.3 29.8 129.5 30.3C129.8 31.1 129.9 32 129.8 33C129.4 36.1 128.3 38.8 126.5 41.1C126.1 41.7 125.4 42.2 124.6 42.5C123.8 42.9 123 42.8 122.3 42.3C122.1 42.2 122.1 42 122.2 41.8C122.9 40.8 123.6 39.9 124.4 38.9C125 38.1 125.5 37.2 125.8 36.3C126.1 35.5 126.2 34.5 126.1 33.7Z" fill-rule="evenodd"  fill="#6B2F79" >
</path>
<path d="M185.2 30.6C185.4 30.8 184.8 31.5 184 32.1C183.2 32.7 182.4 33 182.3 32.8C182.1 32.6 182.7 31.9 183.5 31.3C184.3 30.7 185 30.4 185.2 30.6Z" fill-rule="evenodd"  fill="#663872" >
</path>
<path d="M102.1 35.9C102.4 35.4 102.8 35 103.2 34.8C103.4 34.7 103.7 34.7 103.9 35C104.3 35.5 104.4 36 104.4 36.6C104.4 37.1 104 37.3 103.3 37.1L102.3 36.8C102 36.6 101.9 36.2 102.1 35.9Z" fill-rule="evenodd"  fill="#663872" >
</path>
<path d="M72.6 293.2C58.5 278.8 49.4 261.7 45.3 241.8C44 235.3 43.3 228.6 43.3 221.6C43.3 198 43.3 174.5 43.3 150.9C43.3 147.7 43.3 145.3 43.4 143.7C44 131.9 46.4 120.8 50.7 110.4C58.3 92.1 70 77.2 85.7 65.8C99.3 55.9 114.6 49.8 131.5 47.4C133.8 47.1 136.2 46.9 138.7 46.7C143.3 46.5 148.5 46.4 154.5 46.5C167.8 46.7 180.3 49.1 192.1 53.9C194.3 54.8 196.5 55.8 198.7 56.9C217.9 66.4 232.6 80.3 243 98.8C251 113 255.3 128.4 255.9 145.1C256 146.5 256 148.9 256 152.3C256 173.7 256 195 256 216.4C256 216.4 256 217.6 256 220C256.1 232.9 254 245.1 249.8 256.6C242.4 276.7 230 292.9 212.4 305.3C210.4 306.7 208.4 308 206.4 309.3C191.8 318.1 176.1 322.9 159.1 323.8C153.8 324.1 148.1 324.1 141.9 323.9C139.2 323.8 136.8 323.6 134.7 323.4C113 321 94 312.7 77.7 298.3C76 296.6 74.3 294.9 72.6 293.2ZM75.7 294.1C90.4 308.2 107.7 317.1 127.8 320.7C133.6 321.7 139.4 322.3 145.3 322.3C148.4 322.3 151.5 322.3 154.6 322.3C169.9 322.2 184.3 318.8 197.9 312.2C200 311.2 202.2 310 204.3 308.8C219.4 300 231.4 288.2 240.2 273.4C248.6 259.3 253.3 244 254.2 227.5C254.4 224.3 254.5 219.3 254.5 212.7C254.5 196.6 254.5 180.6 254.6 164.5C254.6 154.2 254.6 147.6 254.5 144.8C253.6 124.9 247.6 107 236.5 91.2C224.1 73.6 207.8 61.1 187.4 53.8C185.1 53 182.8 52.3 180.5 51.6C172 49.3 163.3 48.1 154.4 48.1C151.2 48.1 148 48.1 144.7 48.1C131.1 48.2 118.1 50.9 105.6 56.3C89.3 63.3 75.7 74 64.9 88.5C63.5 90.4 62.1 92.4 60.8 94.4C50.1 111.2 44.8 129.6 44.9 149.7C44.9 152 44.9 153.1 44.9 153.2C44.8 174.8 44.8 196.4 44.9 217.9C44.9 221.9 44.9 224.3 45 225.1C45.2 232.4 46.3 239.7 48.1 246.8C52.8 265.2 62 280.9 75.7 294.1Z" fill-rule="evenodd"  fill="#FFFFFF" >
</path>
<path d="M75.7 294.1C62 280.9 52.8 265.2 48 246.8C46.1 239.7 45.1 232.4 44.9 225.1C44.9 224.3 44.9 221.9 44.8 217.9C44.7 196.3 44.8 174.7 44.8 153.2C44.8 153.2 44.8 152 44.8 149.7C44.7 129.6 50 111.1 60.7 94.4C62 92.4 63.4 90.4 64.8 88.5C75.7 74 89.2 63.3 105.6 56.3C118.1 51 131.1 48.2 144.7 48.1C147.9 48.1 151.1 48.1 154.4 48.1C163.3 48.2 172 49.3 180.5 51.6C182.8 52.2 185.1 52.9 187.4 53.8C207.8 61.1 224.2 73.6 236.5 91.2C247.6 107.1 253.6 124.9 254.5 144.8C254.6 147.6 254.7 154.2 254.6 164.5C254.6 180.6 254.5 196.6 254.5 212.7C254.5 219.3 254.4 224.3 254.2 227.5C253.3 244 248.6 259.3 240.2 273.4C231.4 288.2 219.4 300 204.3 308.8C202.2 310 200.1 311.2 197.9 312.2C184.3 318.8 169.8 322.1 154.6 322.3C151.5 322.3 148.4 322.3 145.3 322.3C139.4 322.3 133.6 321.7 127.8 320.7C107.7 317.1 90.3 308.2 75.7 294.1ZM79.1 291.7C92.1 304 107.5 312 125 315.8C131.6 317.2 137.7 318 143.4 318C146.6 318 149.8 318 153 318C156.1 318 158.5 317.9 160.2 317.8C176 316.8 190.7 312.2 204.2 303.9C213.9 298.1 222.2 290.8 229.1 282.2C242.1 266.1 249.3 247.7 250.7 227C250.8 225.2 250.9 222.8 250.9 219.8C250.9 210.7 250.9 201.6 250.9 192.5C250.9 178.9 250.9 165.4 250.9 151.8C250.9 148.5 250.9 146.1 250.8 144.6C250.2 131.4 247 118.9 241.2 107C236.3 96.8 229.9 87.9 222.1 80.3C205.8 64.3 186.2 55.1 163.4 52.7C161.3 52.5 158.9 52.3 156.2 52.3C150.3 52.1 144.9 52.2 140.1 52.4C126.6 53.1 113.8 56.5 101.7 62.7C99.6 63.8 97.5 64.9 95.4 66.2C78.5 76.5 65.8 90.5 57.4 108.4C52.5 118.8 49.6 130 48.7 141.8C48.6 143.6 48.5 146 48.5 149C48.4 164.4 48.4 179.8 48.4 195.2C48.4 195.7 48.4 196.2 48.4 196.8C48.4 197.5 48.4 198 48.4 198.4C48.5 206.9 48.6 213.3 48.5 217.7C48.4 225.5 49.1 233 50.5 240.2C51 242.5 51.5 244.9 52.2 247.2C57 264.7 66 279.5 79.1 291.7Z" fill-rule="evenodd"  fill="#6F2F7C" >
</path>
<path d="M221.6 66.7C221.2 66.5 221 66.1 221 65.7C221 64.9 221.2 64.2 221.5 63.5C221.7 63 222.1 62.4 222.7 61.7C226.8 57 231.5 53 236.8 49.9C238.3 49 239.6 49.1 241 50C241.5 50.3 241.9 50.3 242.2 49.8C242.9 49 243.6 48.4 244.3 48.1C244.6 47.9 244.8 48 244.7 48.4C244.4 50.2 244.5 51.9 244.9 53.5C245 53.7 244.8 54 244.6 54.1C243.5 54.6 242.6 54.6 241.8 53.9C241.6 53.7 241.3 53.4 241 52.9C240.8 52.5 240.5 52.2 240.3 51.8C239.6 50.8 238.7 50.4 237.8 50.9C237.4 51.1 236.9 51.6 236.1 52.4C234 54.8 231.9 57.1 229.8 59.4C229.7 59.5 229.7 59.6 229.7 59.7C229.8 60 230 60.1 230.4 60C230.9 59.8 231.4 59.5 232 59.1L232.1 59C232.3 59 232.3 59 232.2 59.2C230.1 61.3 228.8 62.4 228.2 62.7C227 63.3 226.2 63.7 225.9 64.1C225 65.1 223.9 65.9 222.6 66.5C222.4 67 222 67 221.6 66.7Z" fill-rule="evenodd"  fill="#FFFFFF" >
</path>
<path d="M65.5 73.3C65.3 73.8 65.4 73.9 65.8 73.5C66.9 72.3 68.1 71.2 69.4 70.2C69.9 69.8 70.4 69.6 70.8 69.5C71.3 69.4 71.9 69.3 72.4 69.4C73 69.4 73.2 69.7 73 70.3C72.8 70.8 72.5 71.3 72.2 71.7C71.7 72.3 71.4 72.6 71.4 72.6C70.3 74.1 69.4 75.7 68.6 77.3C68.5 77.4 68.4 77.5 68.4 77.5C68.3 77.5 68.2 77.3 68.2 77C68.3 76.1 68 76 67.4 76.5C65.1 78.7 63.2 81.2 61.7 84C61.3 84.7 60.9 85.2 60.5 85.4C59.7 85.8 59 85.9 58.1 85.5C57.6 85.3 57.2 85 57 84.5C56.8 83.9 56.9 83.4 57.5 82.9C59.1 81.6 60.2 80.4 60.9 79.5C62.3 77.5 63 75.3 63 72.8C63 71.9 63 71.1 63 70.6C63 69.6 62.6 69.5 62 70.2C61.1 71.2 60.2 72.3 59.4 73.5C59.4 73.5 58.9 74.3 57.8 75.7C57.3 76.4 56.8 77.2 56.4 78.1C55.1 80.7 53.5 83.4 51.8 86.2C50.9 87.6 50.4 88.4 50.1 88.6C49.3 89.3 48.3 89.6 47.1 89.5C46.3 89.4 45.7 89.2 45.3 88.7C45.1 88.5 45 88.3 45.1 88.1C45.1 87.7 45.4 87.6 45.9 87.7C46.7 87.9 47.3 87.7 47.7 87.2C49.9 83.9 52.3 80.7 54.7 77.6C54.7 77.6 54.8 77.4 55.1 77.2C55.4 76.9 55.5 76.6 55.6 76.2C55.7 75.7 55.5 75.4 55 75.3C54.7 75.3 54.5 75.2 54.2 75.1C54.1 75 53.8 74.9 53.5 74.7C53.2 74.5 52.8 74.3 52.5 74.2C52.2 74.1 51.9 74.2 51.4 74.3C50.5 74.5 49.6 74.6 48.7 74.4C48.5 74.4 48.5 74.3 48.6 74.1L50.3 72.7C50.7 72.4 50.7 72 50.3 71.6L48.4 69.6C48.2 69.3 48.2 69.2 48.6 69.3C49.8 69.4 50.9 69.7 51.9 70.2C52.4 70.4 52.8 70.3 53 69.8L54.1 67.8C54.3 67.4 54.3 67 53.8 66.8C53.3 66.5 52.8 66.3 52.3 66C51.7 65.7 51.3 65.4 51.1 65.2C50.6 64.7 50.7 64.1 51.4 63.5C51.5 63.4 51.6 63.4 51.7 63.4C52.4 63.6 52.8 63.8 53 64.2C53.4 64.8 53.8 64.9 54.3 64.5C54.5 64.4 54.7 64.4 54.8 64.6C55 64.9 55.2 65.1 55.5 65.2C55.6 65.3 55.7 65.2 55.8 65.2C56.2 65 56.5 64.6 56.7 64.2C56.7 64.1 56.7 64 56.7 63.9C56 62.6 55 61.7 53.6 61C53.1 60.8 53.1 60.6 53.7 60.5C54.6 60.4 55.4 60.1 56.1 59.6C56.2 59.5 56.4 59.5 56.6 59.7C57.2 60.4 57.7 61.2 58.1 62C58.2 62.1 58.3 62.2 58.4 62.1C59.1 61.8 59.4 61.3 59.2 60.7C59.1 60.5 58.9 60.1 58.6 59.5C58.1 58.5 57.3 57.7 56.4 57.1C56.3 57 56.2 57 56.1 57.1C56 57 55.9 57.3 56 57.7C56 58.3 55.9 58.5 55.6 58.2C55.5 58.1 55.4 58 55.4 57.8C55.3 57.3 55 56.7 54.8 56.2C54.5 55.5 54.1 55.5 53.7 56.1C52.1 58.6 50.7 61 49.3 63.5C48.6 64.8 47.7 65.8 46.8 66.4C46.1 66.8 45.4 66.9 44.7 66.7C44.2 66.5 43.7 66.1 43.2 65.4C41.3 63 40.2 60.2 39.9 57C39.8 56.4 39.9 55.8 40.1 55.3C40.2 55.1 40.4 55 40.6 55.1C42.8 56.6 44.8 58.3 46.7 60.1C46.7 60.1 46.8 60.2 47 60.4C47.6 61 48.1 60.9 48.6 60.1C50 57.9 51.3 55.9 52.5 54.2C52.6 54.1 53 53.7 53.7 52.9C54.1 52.5 54.4 51.9 54.6 51.4C55 50.4 55.2 49.8 55.2 49.8C55.8 48.8 56.8 48.4 58.1 48.6C58.2 48.6 58.3 48.7 58.4 48.8C58.7 49.4 58.7 50 58.3 50.6C57.9 51.2 57.4 51.8 56.9 52.5C56.7 52.7 56.8 53.1 57.1 53.2C58.2 53.8 59.1 54.6 59.7 55.6C60.1 56.2 60.3 56.5 60.3 56.5C61 57.5 61.8 58.5 62.5 59.4C62.8 59.7 62.9 60.1 62.8 60.6C62.7 61 62.8 61.4 63 61.8C63.4 62.4 63.8 63.1 64.1 63.9C64.2 64 64.3 64.1 64.5 64.1C65.1 63.9 65.5 63.5 65.7 62.8C65.8 62.6 65.9 62.4 66.1 62.3C68.1 61.1 69.9 59.7 71.6 58.3C72.2 57.8 72.9 57.6 73.6 57.7C73.9 57.7 74.1 58 74.1 58.3C74 59.1 73.8 59.8 73.4 60.4C73.1 60.8 72.6 61.3 71.8 61.9C70.4 63 69 64 67.6 65C67 65.4 66.5 65.8 66.1 66.4C65.8 66.7 65.7 67.1 65.8 67.5C66.3 69.7 66.2 71.6 65.5 73.3ZM61.4 65.2C61.5 65.1 61.3 64.7 61 64.2C60.7 63.7 60.3 63.4 60.2 63.5C60.1 63.6 60.3 64 60.6 64.5C60.9 64.9 61.3 65.2 61.4 65.2ZM56.8 73C57.2 73.3 57.5 73.2 57.7 72.9C58.5 71.8 59.3 70.8 60.1 70C60.1 70 60.4 69.7 61.1 69.1C61.5 68.7 61.8 68.3 61.9 67.9C62.2 67.3 62 67 61.3 67.1C60.4 67.2 59.7 67 59.2 66.4C58.7 65.9 58.3 65.9 58 66.6C57.7 67.3 58 68.1 58.8 69.1C59.1 69.4 59.2 69.8 59.2 70.3C59.2 70.7 59 70.9 58.5 70.8C58.3 70.8 58.1 70.7 57.8 70.5C57.4 70.3 57 70 56.6 69.8C56.5 69.7 56.4 69.7 56.3 69.8C55.8 70 55.5 70.4 55.4 70.9C55.4 71.3 55.5 71.6 55.8 72.1C56.2 72.4 56.5 72.8 56.8 73Z" fill-rule="evenodd"  fill="#FFFFFF" >
</path>
<path d="M242.6 60.9L241.9 60.3C241.8 60.2 241.8 60.1 241.8 60C242.1 59 242.6 58 243.3 57.2C243.9 56.5 244.6 56.1 245.3 56.2C245.9 56.3 246.3 56.3 246.5 56.2C248.7 55.5 250.8 54.9 253 54.2C254.2 53.8 254.8 53.1 254.8 51.8C254.8 51.5 255.1 51.4 255.3 51.5C256.7 52.3 257.6 53.4 257.8 54.9C257.8 55 257.8 55.1 257.7 55.2C257.4 55.9 256.9 56.3 256.2 56.4C255.8 56.5 255.2 56.3 254.4 56C254 55.9 253.6 55.7 253.1 55.6C252.7 55.5 252.2 55.4 251.8 55.5C250.7 55.6 249.6 55.7 248.6 55.9C248.1 56 247.6 56.3 247.3 56.7C246.9 57.2 247.1 57.5 248 57.7C249.6 58 251.3 58.2 253 58.3C255.4 58.5 257.3 59.5 258.7 61.3C259 61.7 259.2 62.1 259.3 62.5C259.4 63 259.4 63.4 259.2 63.8C258.9 64.4 258.3 64.7 257.5 64.8C256.4 64.9 255.3 64.9 254.4 64.8C253.3 64.7 252.5 64.7 252 64.8C251 65 250.1 65.4 249.2 65.9C249.1 66 249.1 66.1 249.1 66.2C249.4 66.7 249.6 67.3 249.9 67.8C250.1 68.2 250.2 68.6 250.1 68.8C250 69.1 249.8 69.3 249.4 69.4C249.2 69.5 248.9 69.4 248.6 69.2C247.9 68.8 247.1 68.6 246.3 68.4C245.5 68.3 245.3 68.5 245.6 69.3C245.9 70.1 245.8 70.7 245.1 71.2C244.9 71.4 244.3 71.6 243.5 71.8C242.6 72.1 241.9 72.4 241.4 72.9C240.7 73.4 240.1 74 239.4 74.5C238.8 74.9 238.5 75.3 238.4 75.6C238.1 76.1 238.2 76.7 238.7 77.3C240.1 79.1 242.2 80.2 244.9 80.9C245.4 81 245.8 80.9 246.1 80.4L247.3 78.7C247.4 78.6 247.4 78.6 247.4 78.7C247.5 79.4 247.5 80 247.4 80.5C247.1 81.7 247.3 82.8 248 83.8C248.1 83.9 248.1 84 248.1 84.1C247.8 85.2 247.1 86.1 246.2 86.7C246 86.9 245.6 86.9 245.4 86.8C244.7 86.4 243.9 86.2 243.2 86C241.9 85.7 241.2 85.5 241 85.4C240.4 85.1 239.8 84.8 239.2 84.4C238.1 83.6 237.5 83.2 237.5 83.2C236.2 82.3 235.1 81.4 234.4 80.5C234 80.1 233.9 79.4 233.9 78.5C233.9 76.6 234.5 75 235.6 73.7C236.1 73.1 237.1 72.4 238.4 71.7C239.7 71 240.9 70.4 242.2 69.7C242.5 69.5 242.7 69.4 242.8 69.2C243 68.9 243 68.6 242.6 68.5C242.4 68.4 242.2 68.4 242 68.4C239.9 68.5 237.8 68.6 235.8 68.7C233.6 68.8 231.8 68.7 230.2 68.3C229.7 68.2 229.4 67.8 229.5 67.3C229.5 67.2 229.6 67.1 229.7 67C230.1 66.6 230.6 66.3 231.1 66.1C231.5 66 232 65.9 232.7 66C234 66.1 235.2 66.2 236.5 66.3C238.7 66.5 240.3 66.4 241.4 66.1C241.9 66 242 65.7 241.7 65.4C241.6 65.3 241.4 65.2 241.2 65.1C239.5 64.4 237.6 64 235.4 63.9C235 63.9 234.8 63.7 234.9 63.4C234.9 63.2 235.1 63.1 235.2 63C236.6 62.1 238.1 62 239.5 62.7C240.5 63.2 241 63.5 241.1 63.5C241.7 63.7 242.3 63.7 242.9 63.6C243.6 63.5 243.7 63.3 243.2 62.7C242.8 62.4 242.7 61.8 242.9 61.1C242.8 61.2 242.7 61 242.6 60.9ZM246.4 60.3C246.2 60.4 246.2 60.7 246.4 60.8C248.2 62.1 250.2 62.8 252.4 62.8C252.8 62.8 253.4 62.7 254.4 62.6C255.1 62.5 255.7 62.4 256.4 62.4C257.1 62.4 257.3 62.1 257 61.4C256.6 60.3 255.7 59.7 254.3 59.7C252.3 59.7 250.2 59.7 248.2 59.7C247.5 59.7 246.9 59.9 246.4 60.3Z" fill-rule="evenodd"  fill="#FFFFFF" >
</path>
<path d="M246.4 60.3C246.9 59.9 247.5 59.7 248.1 59.7C250.1 59.7 252.2 59.7 254.2 59.7C255.6 59.7 256.5 60.3 256.9 61.4C257.1 62 256.9 62.3 256.3 62.4C255.6 62.4 255 62.5 254.3 62.6C253.4 62.7 252.7 62.8 252.3 62.8C250.1 62.8 248.1 62.1 246.3 60.8C246.2 60.6 246.2 60.4 246.4 60.3Z" fill-rule="evenodd"  fill="#6D2C7D" >
</path>
<path d="M61.4 65.2C61.3 65.3 60.9 65 60.6 64.5C60.3 64 60.1 63.6 60.2 63.5C60.3 63.4 60.7 63.7 61 64.2C61.3 64.7 61.5 65.1 61.4 65.2Z" fill-rule="evenodd"  fill="#663872" >
</path>
<path d="M56.8 73C56.5 72.8 56.2 72.4 55.9 72C55.6 71.6 55.4 71.2 55.5 70.8C55.6 70.3 55.8 69.9 56.4 69.7C56.5 69.7 56.6 69.7 56.7 69.7C57.1 69.9 57.5 70.2 57.9 70.4C58.2 70.6 58.4 70.6 58.6 70.7C59 70.7 59.2 70.6 59.3 70.2C59.3 69.7 59.2 69.3 58.9 69C58.1 68 57.8 67.2 58.1 66.5C58.4 65.8 58.8 65.8 59.3 66.3C59.9 66.9 60.6 67.1 61.4 67C62.1 66.9 62.3 67.1 62 67.8C61.8 68.2 61.6 68.6 61.2 69C60.6 69.6 60.3 69.9 60.2 69.9C59.4 70.8 58.6 71.8 57.8 72.8C57.5 73.3 57.2 73.3 56.8 73Z" fill-rule="evenodd"  fill="#6B2F79" >
</path>
<path d="M143.6 152.4C143.6 152.5 143.6 152.5 143.5 152.6L52.9 194.7C52.7 194.8 52.6 194.7 52.6 194.5L52.6 157.1C52.6 156.9 52.7 156.8 52.8 156.7L143.4 114.6C143.5 114.5 143.6 114.6 143.6 114.7L143.6 152.4Z" fill-rule="evenodd"  fill="#6F2C7C" >
</path>
<path d="M160.6 147.1C160.6 146.9 160.7 146.7 160.9 146.6L202.8 127.2C203 127.1 203.1 127.2 203.1 127.4L203.1 163.7C203.1 163.9 203 164 202.8 164.1L160.6 183.7C160.5 183.7 160.4 183.7 160.4 183.6L160.6 147.1Z" fill-rule="evenodd"  fill="#6F2C7C" >
</path>
<path d="M220 288.5C219.6 288.9 219.2 289.3 218.7 289.8C218.5 290 218.3 290 218.3 289.6L218.3 159.1C218.3 159 218.4 158.9 218.5 158.8L246.4 145.8C246.5 145.8 246.6 145.8 246.6 145.9C246.6 171 246.6 196.1 246.6 221.2C246.6 228.1 246.1 234.5 245 240.4C244.6 242.7 244.1 245.1 243.4 247.4C239.3 262.6 231.7 275.9 220.8 287.3C221 287.5 220.7 287.8 220 288.5Z" fill-rule="evenodd"  fill="#6D2C7D" >
</path>
<path d="M143.7 154.8L143.7 191.4C143.7 191.5 143.6 191.6 143.5 191.7L53.4 233.5C53.3 233.6 53.1 233.5 53.1 233.3C52.7 228.7 52.5 224.1 52.5 219.5C52.5 212 52.6 204.6 52.6 197.1C52.6 197 52.7 196.9 52.7 196.9L143.5 154.7C143.6 154.6 143.7 154.7 143.7 154.8Z" fill-rule="evenodd"  fill="#6F2C7C" >
</path>
<path d="M81.1 288.7C73.8 281.6 67.6 273.3 62.6 263.5C58.1 254.8 55.1 245.5 53.5 235.8C53.5 235.6 53.6 235.5 53.7 235.4L143.3 193.8C143.5 193.7 143.7 193.9 143.7 194.1C143.7 228.8 143.7 263.3 143.7 297.8C143.7 300.2 144.3 302.3 145.6 303.9C146.5 305.1 147.9 306.1 149.6 306.8C151.2 307.5 152.8 307.8 154.6 307.9C156.5 308 158.4 308 160.3 308.1C160.4 308.1 160.5 308 160.5 307.9C160.5 267.7 160.5 227.6 160.5 187.5C160.5 187.5 160.5 187.3 160.5 186.9C160.5 186.4 160.6 186 161 185.7C161 185.7 161.4 185.5 162.1 185.2C175.7 178.9 189.4 172.6 203 166.2C203.1 166.2 203.2 166.2 203.2 166.3C203.2 209.2 203.2 252.1 203.2 294.9C203.2 295.8 203.3 296.4 203.5 296.8C203.9 297.5 204.6 297.7 205.5 297.6C207.3 297.4 209.4 296.9 211.7 296C211.8 296 211.8 296 211.7 296.1C196.4 308.1 179 314.8 159.6 316C157.8 316.1 155.4 316.2 152.4 316.2C149.9 316.2 147.3 316.2 144.8 316.2C141.9 316.2 139 316 136.1 315.7C133.8 315.4 131.4 315.1 129 314.5C110.7 310.3 94.7 301.8 81.1 288.7Z" fill-rule="evenodd"  fill="#6F2C7C" >
</path>
<path d="M265.4 203.2C264.8 203.7 264.6 204.2 264.7 204.8C264.8 205.7 264.5 206 263.6 205.8C263.5 205.8 263.5 205.7 263.5 205.7L263.5 197.7C263.5 197.6 263.6 197.5 263.7 197.4C264 197.3 264.2 197.3 264.4 197.5C264.5 197.5 264.6 197.6 264.6 197.8C264.7 199.4 265.4 200.6 266.8 201.4C269.5 203.1 272.5 204.8 275.8 206.5C276.3 206.7 276.7 207 277.2 207.1C277.6 207.2 278.1 207.3 278.6 207.4C280.7 207.5 283 207.5 285.6 207.4C286.2 207.4 286.7 207.2 287 206.8C287.2 206.6 287.4 206.1 287.5 205.5C287.6 205 287.7 204.4 287.8 203.9C287.8 203.8 287.9 203.7 288 203.7C288.3 203.6 288.5 203.7 288.7 203.9C288.8 204 288.9 204.2 288.9 204.5C288.8 207.7 288.8 210.9 288.8 214.1C288.8 214.2 288.8 214.3 288.7 214.4C288.4 214.6 288.2 214.6 287.9 214.4C287.8 214.3 287.8 214.2 287.8 214.1C287.7 212.9 287.5 212.1 287.3 211.7C287 211.1 286.4 210.8 285.5 210.8C283.7 210.7 281.8 210.7 280 210.8C278.7 210.8 277.7 211 277.1 211.3C272.1 213.9 268.4 216 266 217.6C265.2 218.1 264.7 219 264.5 220.3C264.5 220.4 264.4 220.5 264.3 220.6C264.1 220.8 263.8 220.8 263.6 220.6C263.5 220.5 263.5 220.4 263.5 220.3L263.5 211.8C263.5 211.7 263.6 211.6 263.7 211.5C264 211.3 264.3 211.3 264.5 211.6C264.6 211.7 264.7 211.9 264.7 212.3C264.8 212.8 264.9 213.2 265.1 213.5C265.3 213.8 265.7 213.9 266 213.7L275.6 208.5C275.8 208.4 275.8 208.3 275.6 208.1C273.2 206.7 270.7 205.4 268.1 204.2C267.2 203.8 266.4 203.4 265.7 203.3C265.6 203.1 265.5 203.1 265.4 203.2Z" fill-rule="evenodd"  fill="#FFFFFF" >
</path>
<path d="M16.3 209.4C22.5 211.4 28.6 213.3 34.8 215.3C35.5 215.5 35.6 215.9 35.3 216.5C35.2 216.6 35.2 216.7 35 216.7L16.4 223.1C16 223.2 16 223.4 16.4 223.5C21.5 225 26.6 226.4 31.7 227.7C33.6 228.2 34.6 227.5 34.7 225.6C34.7 225.5 34.7 225.3 34.8 225.3C35 225 35.3 225 35.7 225.2C35.8 225.3 35.8 225.4 35.8 225.5L35.7 233.2C35.7 233.3 35.6 233.4 35.5 233.5C35.2 233.6 34.9 233.6 34.7 233.4C34.6 233.3 34.6 233.2 34.6 233.1C34.5 232.1 34.2 231.4 33.6 230.8C33.2 230.5 32.5 230.1 31.5 229.8C25.5 227.8 18.5 225.6 10.5 223.4C9.90001 223.2 9.70001 222.8 10 222.2C10.1 222.1 10.1 222 10.3 222L29.2 215.6C29.4 215.5 29.4 215.5 29.2 215.4L10.4 209C10.3 209 10.2 208.9 10.1 208.8C10 208.5 10 208.1 10.1 207.8C10.1 207.7 10.2 207.6 10.4 207.6C16.6 205.8 22.8 204 29 202.1C31.4 201.4 32.9 200.8 33.4 200.5C34 200 34.4 199.2 34.6 198.2C34.7 197.4 35.1 197.3 35.7 197.7C35.8 197.8 35.8 197.9 35.8 198C35.7 200.7 35.7 203.4 35.7 206C35.7 206 35.7 206.1 35.7 206.3C35.7 206.8 35.5 206.9 34.8 206.7C34.7 206.7 34.6 206.6 34.6 206.5L34.1 204.7C34 204.3 33.7 204.1 33.2 204.2C27.5 205.7 21.8 207.3 16.1 209.1C16.1 209.2 16.1 209.3 16.3 209.4Z" fill-rule="evenodd"  fill="#FFFFFF" >
</path>
<path d="M284.1 245C283.7 244.8 283.2 244.6 282.7 244.6C276.2 243.4 269.7 242.3 263.2 241.3C263.1 241.3 263 241.3 263 241.4C262.7 242.7 262.4 244.2 262.3 245.7C262.2 247.1 262.7 248.1 263.9 248.7C264.3 248.9 264.5 249 264.5 249C265 249.3 265.6 249.6 266.1 249.9C266.2 250 266.3 250.1 266.3 250.2C266.3 250.8 266.1 251 265.5 250.9C265.2 250.8 265.1 250.8 265.1 250.8C263.2 250.4 261.4 249.9 259.6 249.5C259 249.4 259 249.1 259.5 248.8C259.8 248.6 260.1 248.4 260.3 248.1C260.5 247.9 260.6 247.6 260.7 247.1C261.6 242 262.5 236.8 263.3 231.6C263.4 231.2 263.3 230.8 263 230.4C262.6 229.9 262.6 229.6 262.8 229.3C262.9 229.2 263 229.2 263.1 229.2L269.3 229.9C269.4 229.9 269.5 230 269.5 230.1C269.6 230.4 269.5 230.7 269.4 230.9C269.3 231 269.2 231 269.1 231C267.8 231 266.7 231.2 265.7 231.7C265.1 232 264.6 232.6 264.4 233.4C264 234.8 263.8 236.3 263.6 237.9C263.6 238.1 263.7 238.2 263.9 238.3C270.2 239.4 276.6 240.5 283 241.5C283.4 241.6 283.8 241.6 284.2 241.7C285.1 241.8 285.7 241.4 286.1 240.6C286.4 239.9 286.6 239.2 286.8 238.5C286.8 238.4 286.9 238.3 287 238.3C287.4 238.2 287.7 238.3 287.8 238.7C287.8 238.9 287.8 239.1 287.8 239.4C287.3 242.6 286.7 245.7 286.2 248.9C286.2 249 286.1 249.1 286 249.1C285.7 249.2 285.5 249.1 285.3 248.9C285.2 248.8 285.2 248.7 285.2 248.6C285.3 247.8 285.2 247.1 285 246.3C284.7 245.6 284.5 245.3 284.1 245Z" fill-rule="evenodd"  fill="#FFFFFF" >
</path>
<path d="M18.4 263.8C16.5 262.1 15.4 260 15.1 257.6C14.8 255.7 15.1 254 15.8 252.5C16.6 250.9 17.9 249.6 19.7 248.7C21.1 248 22.5 247.4 23.9 247C27.5 246 31.1 244.9 34.7 243.8C35.8 243.4 36.3 242.6 36.2 241.4C36.2 241.1 36.1 240.9 36 240.6C35.9 240.1 36.1 239.9 36.7 239.9C36.8 239.9 36.9 240 37 240.1C37.8 242.9 38.6 245.6 39.4 248.2C39.5 248.6 39.6 248.8 39.5 249C39.5 249.5 39.2 249.6 38.7 249.4C38.6 249.4 38.5 249.3 38.5 249.2C38.1 247.8 37.3 247.1 36.1 247.1C35.9 247.1 35 247.3 33.4 247.8C31.8 248.2 30.2 248.7 28.7 249.2C25.3 250.2 23.5 250.8 23.4 250.8C21.6 251.6 20 252.7 18.8 254.1C17.8 255.3 17.4 256.8 17.7 258.6C18.1 261 19.2 262.7 21.1 263.7C22.2 264.2 23.5 264.5 25.1 264.4C26.4 264.4 27.8 264.2 29.2 263.8C33 262.9 36.4 261.8 39.4 260.6C40 260.4 40.4 260 40.7 259.6C41.1 258.9 41.1 258.2 40.9 257.4C40.8 257.1 40.8 256.8 40.9 256.6C41 256.2 41.3 256.1 41.7 256.4C41.9 256.5 42 256.7 42.1 257C42.8 259.5 43.5 262.1 44.2 264.6C44.2 264.7 44.2 264.8 44.1 264.9C43.6 265.3 43.2 265.2 43 264.5C42.8 263.8 42.3 263.3 41.8 262.9C41.4 262.6 40.9 262.6 40.2 262.7C39.4 262.8 38.7 263 38.1 263.1C33.6 264.4 30.6 265.2 29 265.6C27.3 266 25.6 266.2 23.8 266.1C21.5 265.8 19.8 265.1 18.4 263.8Z" fill-rule="evenodd"  fill="#FFFFFF" >
</path>
<path d="M254.1 266.8C253.9 266.7 253.8 266.5 253.9 266.3L257.4 257.5C257.4 257.4 257.5 257.3 257.6 257.3C257.8 257.3 258 257.4 258.2 257.6C258.3 257.7 258.3 257.8 258.3 257.9L258 259.5C257.9 260.1 258 260.6 258.4 260.9C258.8 261.3 259.3 261.6 259.9 261.8C260.3 262 260.5 262 260.6 262C266.6 264.5 272 266.6 276.8 268.4C277.2 268.6 277.6 268.6 278.1 268.5C278.5 268.4 278.8 268.2 279.1 267.8C279.4 267.4 279.7 266.9 280 266.3C280.1 266.2 280.2 266.1 280.4 266.1C281 266.2 281.2 266.5 281 267C280.9 267.3 280.8 267.4 280.8 267.4C279.8 270.1 278.7 272.7 277.6 275.4C277.5 275.5 277.4 275.6 277.2 275.6C276.6 275.6 276.4 275.3 276.6 274.7C277.1 273.6 277.1 272.7 276.5 272.1C276.2 271.8 275.6 271.4 274.5 270.9C270.1 269.1 265.6 267.3 261.2 265.5C259.8 265 258.8 264.6 258 264.4C257.3 264.2 256.8 264.3 256.4 264.5C255.9 264.8 255.5 265.3 255.3 266C254.9 266.9 254.6 267 254.1 266.8Z" fill-rule="evenodd"  fill="#FFFFFF" >
</path>
<path d="M45.1999 285.6C47.7999 285.7 50.5999 285.6 53.3999 285.3C53.6999 285.3 53.8999 285.1 53.8999 284.8C53.9999 284.3 53.7999 283.7 53.4999 283.1C53.3999 282.9 53.3999 282.7 53.5999 282.6C54.0999 282.1 54.3999 282.1 54.6999 282.5C55.9999 284.7 57.2999 286.8 58.6999 288.9C58.9999 289.3 58.7999 289.6 57.9999 289.8C57.8999 289.8 57.7999 289.8 57.6999 289.7C56.5999 288.1 55.0999 287.3 53.0999 287.2C50.1999 287 47.2999 287 44.4999 287C44.2999 287 44.1999 287.1 44.0999 287.2C42.0999 291.1 40.2999 294.8 38.6999 298.3C38.0999 299.7 37.9999 301 38.4999 302.4C38.4999 302.4 38.5999 302.6 38.7999 303C39.0999 303.5 38.8999 303.8 38.1999 303.9C38.0999 303.9 37.9999 303.9 37.8999 303.8L32.9 295.9C32.8 295.8 32.8 295.7 32.9 295.6C33 295.4 33.2 295.2 33.5 295.2C33.6 295.2 33.7 295.2 33.8 295.3L34.9 296.4C35.2999 296.8 35.5999 296.7 35.8999 296.2C37.5999 293.3 39.0999 290.3 40.4999 287.2C40.4999 287.1 40.4999 287 40.3999 287C38.9999 286.9 36.5999 286.9 33.1 287.1C31.8 287.2 30.8 287.3 30.1 287.6C30 287.6 29.9 287.7 29.9 287.8C29.9 288.4 30 289 30.3 289.6C30.4 289.7 30.4 289.8 30.4 289.9C30.3 290.2 30.1 290.4 29.7 290.4C29.6 290.4 29.5 290.3 29.4 290.2L25.1 283.4C25 283.3 25.1 283.2 25.1 283.1C25.6 282.6 25.9 282.6 26.2 282.9C26.8 283.7 27.6 284.3 28.4 284.7C29 285 29.9 285.2 31.1 285.2C34.4 285.4 37.7999 285.4 41.0999 285.3C41.1999 285.3 41.2999 285.2 41.3999 285.1C43.2999 281.4 44.8999 278.2 46.0999 275.6C46.7999 274.1 46.7999 272.5 45.9999 271C45.8999 270.9 45.9999 270.8 45.9999 270.7C46.3999 270.1 46.6999 270.2 47.0999 270.7C47.1999 270.9 47.2999 271 47.2999 271C48.6999 273.2 50.0999 275.4 51.4999 277.7C51.5999 277.8 51.5999 277.9 51.4999 278C50.9999 278.5 50.6999 278.5 50.3999 278C50.2999 277.8 49.8999 277.6 49.2999 277.2C49.1999 277.1 49.0999 277.2 48.9999 277.2C48.5999 277.6 48.1999 278.2 47.7999 278.9C46.2999 281.9 45.2999 284 44.7999 285.1C44.9999 285.5 45.0999 285.6 45.1999 285.6Z" fill-rule="evenodd"  fill="#FFFFFF" >
</path>
<path d="M249.5 275.7C249.6 275.6 249.8 275.6 249.9 275.6L254.2 277.7C254.3 277.8 254.4 277.9 254.4 278C254.3 278.6 254.1 278.9 253.8 278.8C253.6 278.7 253.4 278.7 253.4 278.7C252.5 278.5 251.9 278.4 251.7 278.4C249.2 278.1 247.5 279 246.6 281.2C246 282.8 246.3 284.2 247.5 285.6C249 287.2 250.9 287.6 253.2 286.6C254.3 286.1 256.2 285.2 258.8 283.8C260.2 283 261.8 282.7 263.3 283C264.8 283.2 266.1 283.9 267.1 284.9C268.2 286 268.9 287.4 269.1 289C269.3 290.8 268.9 292.6 268 294.4C267.1 296 265.8 297.4 264.2 298.6C263.8 298.9 263.4 298.9 262.9 298.8L258.2 296.8C258.1 296.8 258 296.7 258 296.6C257.9 296.3 258 296 258.2 295.8C258.3 295.7 258.4 295.7 258.5 295.7C260.1 296.1 261.4 296.3 262.6 296.2C264.2 296.1 265.5 295.4 266.5 294.2C267.2 293.4 267.5 292.5 267.6 291.6C267.7 290.7 267.5 289.8 266.9 289C265.9 287.4 264.5 286.7 262.7 286.7C261.7 286.7 260.5 287.1 259.1 287.7C258.1 288.2 257 288.8 255.8 289.4C255.2 289.7 254.4 290 253.6 290.3C252.1 290.7 250.6 290.7 249.2 290.2C247.9 289.7 246.8 288.9 246 287.6C244.4 285.4 244.4 282.8 245.9 280C246.8 278.2 247.9 276.9 249.5 275.7Z" fill-rule="evenodd"  fill="#FFFFFF" >
</path>
<path d="M68.3 301.8C68 301.7 67.6 301.8 67.4 302C66.4 302.8 65.4 303.6 64.5 304.5C60.8 308.2 57 311.9 53.3 315.6C53 315.9 52.7 316.3 52.6 316.8C52.5 317.2 52.6 317.6 52.8 318C53.1 318.5 53.4 318.9 53.7 319.4C53.8 319.5 53.8 319.6 53.8 319.7C53.7 320 53.6 320.1 53.3 320.2C53.2 320.2 53.1 320.2 53 320.1C51 318.1 49 316.1 47 314.1C47 314.1 46.8 314 46.6 313.7C46.1 313.3 46.2 312.9 46.7 312.5C46.8 312.4 46.9 312.4 47 312.5C47.5 312.9 48 313.2 48.5 313.5C49.2 313.9 49.8 313.9 50.4 313.4C51.6 312.4 52.8 311.4 53.9 310.3C57.2 307 60.5 303.7 63.8 300.4C64.4 299.8 64.7 299.3 64.8 298.8C64.9 298.1 64.7 297.4 64 296.8C63.4 296.3 63.4 295.8 64 295.5C64.1 295.4 64.2 295.5 64.3 295.5L70.9 302.3C71 302.4 71 302.5 71 302.6C70.8 303.2 70.5 303.2 70 302.8C69.6 302.3 69 302 68.3 301.8Z" fill-rule="evenodd"  fill="#FFFFFF" >
</path>
<path d="M242 307.8C245.3 308.8 248.7 309.5 252.4 310C253.6 310.1 254.8 310 255.9 309.6C256 309.6 256.1 309.6 256.2 309.6C256.4 309.7 256.5 309.9 256.5 310.1C256.5 310.2 256.4 310.4 256.3 310.6C254.7 312.5 252.6 313.3 250 313.2C249.1 313.1 246.5 312.6 242.2 311.4C241.3 311.2 240.6 311.1 240 311.3C239 311.6 238.2 312.2 237.6 313.2C237.5 313.3 237.6 313.4 237.6 313.5C238.7 314.7 239.9 315.9 241 317C242.2 318.2 242.9 318.9 243.1 319C244.2 319.6 245.3 319.4 246.4 318.2C246.5 318.1 246.6 318.1 246.7 318.1C247 318.1 247.2 318.3 247.3 318.6C247.3 318.7 247.3 318.8 247.2 318.9L240.7 325.4C240.6 325.5 240.5 325.5 240.4 325.5C240 325.5 239.8 325.3 239.8 325C239.8 324.8 239.9 324.7 240.1 324.4C241.4 323 241.4 321.7 240.1 320.5C239.6 320 239.3 319.8 239.3 319.8C235.6 316 231.9 312.2 228.1 308.4C227.4 307.7 226.7 307.2 226.1 306.9C226 306.8 225.9 306.8 225.8 306.9C225.2 307 224.7 307.3 224.2 307.7C223.7 308.2 223.2 308.2 222.8 307.7C222.7 307.6 222.8 307.5 222.8 307.4C224.3 305.9 225.8 304.3 227.4 302.8C228.7 301.6 229.8 300.5 230.8 299.7C232.2 298.5 233.6 297.8 234.8 297.6C236.9 297.3 238.8 298.1 240.4 300C242 301.9 242.3 304.3 241.4 307C241.5 307.4 241.6 307.7 242 307.8ZM236.7 312C237.2 311.6 237.6 311.3 237.9 310.9C238.3 310.5 238.6 310.1 239 309.7C240 308.4 240.3 307 239.9 305.5C239.7 304.6 239.3 303.9 238.7 303.2C238.2 302.6 237.5 302 236.7 301.4C235.5 300.5 234.3 300.3 233 300.6C231.1 301 229.8 302.1 228.9 303.9C228.8 304 228.8 304.1 228.9 304.2C229.1 304.7 229.5 305.2 230.1 305.8C232.2 307.9 234.2 310 236.2 311.9C236.3 312.1 236.5 312.1 236.7 312Z" fill-rule="evenodd"  fill="#FFFFFF" >
</path>
<path d="M236.7 312C236.5 312.1 236.3 312.1 236.2 312C234.2 310 232.2 308 230.1 305.9C229.5 305.3 229.1 304.8 228.9 304.3C228.9 304.2 228.9 304.1 228.9 304C229.8 302.2 231.2 301.2 233 300.7C234.3 300.4 235.6 300.6 236.7 301.5C237.5 302.1 238.1 302.7 238.7 303.3C239.3 304 239.7 304.8 239.9 305.6C240.3 307.1 239.9 308.5 239 309.8C238.7 310.2 238.3 310.7 237.9 311C237.6 311.3 237.2 311.6 236.7 312Z" fill-rule="evenodd"  fill="#6F2F7C" >
</path>
<path d="M212 328.2C213.9 327.3 215.6 326.3 217.2 325C217.3 324.9 217.4 324.8 217.4 324.7C217.6 324 217.6 323.4 217.3 322.7C217.2 322.4 217.1 322.1 217.2 321.9C217.3 321.6 217.5 321.5 217.8 321.5C217.9 321.5 218 321.5 218.1 321.6L221.6 327.5C221.7 327.6 221.7 327.7 221.6 327.8C221.5 328 221.3 328.2 221 328.2C220.9 328.2 220.8 328.2 220.7 328.1C220.2 327.4 219.5 326.9 218.7 326.6C218.6 326.6 218.5 326.6 218.4 326.6C216.5 327.4 214.7 328.4 212.9 329.6C212.8 329.7 212.8 329.8 212.8 329.9C214 332 215.2 334 216.4 335.9C217.1 337 217.5 337.5 217.5 337.6C217.9 338 218.4 338.2 219 338.2C219.4 338.2 219.9 338.1 220.4 337.8C222.2 337 223.7 336 225 334.9C225.5 334.4 225.9 333.8 226 332.9C226.1 332.2 226 331 225.8 329.3C225.8 329.2 225.8 329.1 225.9 329C226.1 328.7 226.4 328.7 226.6 328.8C226.7 328.9 226.9 329 227 329.3C227.6 331 228.2 332.7 228.7 334.3C228.8 334.5 228.7 334.7 228.5 334.8C223.5 337.8 218.6 340.7 213.8 343.5C213.5 343.7 213.3 343.7 213.1 343.7C212.9 343.7 212.7 343.5 212.6 343.1C212.6 343 212.6 342.9 212.7 342.8L214.5 341.2C214.9 340.9 214.9 340.5 214.8 340C214.5 339.2 214.2 338.4 213.7 337.6C213.3 336.9 213 336.5 213 336.5C210.5 332.1 207.9 327.8 205.2 323.5C204.7 322.7 204.3 322.2 203.9 322.1C203.4 321.9 202.6 322 201.8 322.4C201.5 322.5 201.2 322.6 200.8 322.5C200.6 322.5 200.5 322.3 200.6 321.9C200.6 321.8 200.7 321.7 200.8 321.6L214.9 313.2C215 313.1 215.2 313.2 215.3 313.3L218 317.3C218.2 317.5 218.1 317.9 217.9 318.1C217.5 318.5 217.2 318.5 216.9 318.1C216.8 318 216.7 317.9 216.7 317.9C216.1 317.3 215.5 316.8 214.8 316.4C214.3 316.2 213.8 316.1 213.3 316.2C212.6 316.4 211.8 316.7 210.9 317.2C209.6 317.9 208.5 318.6 207.5 319.3C207.1 319.6 207 319.9 207.3 320.3L211.9 328.1C211.8 328.2 211.9 328.2 212 328.2Z" fill-rule="evenodd"  fill="#FFFFFF" >
</path>
<path d="M88.7 317.5C88.6 317.3 88.8 317.1 89.1 316.9C89.2 316.9 89.3 316.9 89.4 316.9L97.7 320.7C97.8 320.7 97.9 320.8 97.9 321C97.9 321.3 97.8 321.5 97.5 321.6C97.3 321.7 97.1 321.7 96.9 321.6C96.2 321.3 95.6 321.2 95 321.3C94.5 321.3 94.2 321.5 94 322C92.4 325 90.9 328 89.6 331.1C89.6 331.1 89.4 331.6 88.9 332.6C88.3 334 87.9 335.4 87.7 336.9C87.5 338.6 87.7 340.1 88.3 341.3C89 342.7 90.2 343.7 91.9 344.4C94.4 345.4 96.6 345 98.5 343.2C99.9 341.9 101.2 340.2 102.2 338.1C103.5 335.5 104.7 332.9 105.8 330.2C106.1 329.4 106.3 328.6 106.5 327.8C106.6 327.3 106.5 326.9 106.1 326.6L104.4 325.2C104.3 325.1 104.2 325 104.2 324.9C104.1 324.6 104.2 324.3 104.5 324.2C104.6 324.2 104.7 324.2 104.8 324.2L112.3 327.8C112.4 327.9 112.5 327.9 112.5 328.1C112.5 328.8 112.2 328.9 111.5 328.7C110.6 328.3 109.9 328.3 109.2 328.7C108.7 328.9 108.3 329.5 107.8 330.3C106.5 332.8 105 335.7 103.5 339.1C102.8 340.7 101.8 342.2 100.4 343.8C98.9 345.5 97.2 346.5 95.1 346.8C93.5 347 91.9 346.8 90.2 346.2C88.6 345.6 87.2 344.6 86 343.4C85.2 342.5 84.7 341.6 84.4 340.7C84.1 339.7 83.9 338.6 84.1 337.5C84.2 336.1 84.6 334.7 85.2 333.4C86.9 329.5 88.7 325.6 90.5 321.7C90.7 321.2 90.8 320.7 90.8 320.2C90.8 319.8 90.6 319.4 90.2 319.1C89.9 318.8 89.5 318.5 89.2 318.3C88.9 317.9 88.7 317.7 88.7 317.5Z" fill-rule="evenodd"  fill="#FFFFFF" >
</path>
<path d="M192.2 327.7C192 327.9 191.9 328.3 191.8 328.8C191.7 329.1 191.6 329.5 191.6 329.9C190.7 337.4 190 344.9 189.5 352.4C189.5 352.8 189.3 353.1 189.1 353.3C188.7 353.7 188.3 353.6 187.8 353C183.3 346.7 178.7 340.4 174 334.3C173.2 333.2 172.2 332.8 170.9 333C170.1 333.1 169.8 332.9 169.8 332.2C169.8 332.1 169.9 332 170 332L178.4 329.6C178.5 329.6 178.6 329.6 178.7 329.7C179 330 179 330.2 178.8 330.5C178.7 330.6 178.5 330.7 178.2 330.9C177.8 331.1 177.4 331.3 177 331.6C176.8 331.8 176.7 332.1 176.8 332.3C177 332.7 177.2 333 177.4 333.3C180.9 338.1 184.3 342.9 187.8 347.6C188 347.9 188.2 347.9 188.2 347.5C188.7 342.1 189.2 336.7 189.4 331.4C189.5 330.2 189.5 329.6 189.5 329.5C189.4 328.6 188.7 328.2 187.6 328.3C187.6 328.3 187.4 328.3 186.9 328.4C186.2 328.5 186 328.3 186 327.6C186 327.5 186.1 327.4 186.2 327.4L193.8 325.2C193.9 325.2 194 325.2 194.1 325.3C194.4 325.8 194.1 326.3 193.2 326.7C192.9 326.9 192.5 327.2 192.2 327.7Z" fill-rule="evenodd"  fill="#FFFFFF" >
</path>
<path d="M136.8 351.8C137.7 346.9 138.4 342 138.9 337C139 336.5 138.9 336 138.9 335.4C138.8 334.9 138.6 334.4 138.2 334.1C137.6 333.6 136.9 333.3 136.1 333.2C136 333.2 135.9 333.1 135.8 333C135.5 332.3 135.7 332 136.6 332.1C139 332.4 141.3 332.8 143.6 333.2C143.6 333.2 143.8 333.2 144.1 333.3C144.7 333.4 144.8 333.6 144.6 334C144.4 334.3 144.1 334.4 143.8 334.4C142.4 334.3 141.5 334.8 141.1 335.9C140.8 336.7 140.6 338.2 140.2 340.5C139.3 346.3 138.4 352.1 137.5 358C137.5 358.1 137.4 358.2 137.3 358.2C136.8 358.3 136.3 358.1 136 357.6C131.8 350.4 127.6 343.1 123.4 335.8C123.3 335.6 123.2 335.6 123.1 335.9C122.5 339.5 122 343 121.6 346.5C121.6 346.5 121.5 347.2 121.3 348.6C121.1 350.1 121 351.7 121.2 353.3C121.2 353.4 121.3 353.5 121.3 353.6C121.9 354.4 122.8 354.8 123.8 355C123.9 355 124 355.1 124.1 355.2C124.2 355.5 124.2 355.7 124.1 356C124 356.1 123.9 356.1 123.8 356.1L115.4 354.9C115.3 354.9 115.2 354.8 115.2 354.7C115.1 354.1 115.3 353.8 116 353.9C117.2 354 118 353.7 118.5 352.9C118.8 352.5 119 351.8 119.2 350.6C120.2 345.5 120.9 340.4 121.6 335.2C121.9 333 121 331.6 118.9 331.1C118.2 330.9 118 330.6 118.3 330C118.4 329.9 118.5 329.8 118.6 329.9L123.6 330.6C123.8 330.6 124 330.8 124.1 331L136.7 352.2C136.7 352 136.7 352 136.8 351.8Z" fill-rule="evenodd"  fill="#FFFFFF" >
</path>
<path d="M153.2 333.9C152.4 333.9 152.1 333.6 152.4 333C152.4 332.9 152.5 332.8 152.7 332.8L162.1 332.3C162.2 332.3 162.3 332.3 162.4 332.4C162.7 332.8 162.7 333 162.5 333.2C162.1 333.4 161.7 333.6 161.2 333.7C160.2 333.8 159.7 334.2 159.5 334.9C159.4 335.1 159.4 335.5 159.4 336.1C159.4 336.4 159.4 336.8 159.4 337.3C159.7 342.9 159.9 348.5 160.3 354.2C160.4 356 161.4 356.7 163.3 356.5C163.6 356.5 163.8 356.6 163.9 356.8C164.2 357.3 164 357.6 163.3 357.7C160.3 357.9 157.2 358 154.2 358.2C154.1 358.2 154 358.1 153.9 358.1C153.5 357.5 153.7 357.1 154.4 357.1C155.8 357 156.7 356.5 156.9 355.4C157 355.1 157 354.2 156.9 352.8C156.6 347.5 156.3 342.2 156 337C155.9 336 155.8 335.3 155.5 334.9C155 334.1 154.2 333.9 153.2 333.9Z" fill-rule="evenodd"  fill="#FFFFFF" >
</path>
</svg>
